<?xml version="1.0" standalone="no"?>
<!DOCTYPE svg PUBLIC "-//W3C//DTD SVG 20010904//EN"
 "http://www.w3.org/TR/2001/REC-SVG-20010904/DTD/svg10.dtd">
<svg version="1.0" xmlns="http://www.w3.org/2000/svg"
 width="1280.000000pt" height="853.000000pt" viewBox="0 0 1280.000000 853.000000"
 preserveAspectRatio="xMidYMid meet">
<metadata>
Created by potrace 1.15, written by Peter Selinger 2001-2017
</metadata>
<g transform="translate(0.000000,853.000000) scale(0.100000,-0.100000)"
fill="#000000" stroke="none">
<path d="M4270 6395 l0 -2135 -2135 0 -2135 0 0 -2130 0 -2130 6400 0 6400 0
0 4265 0 4265 -4265 0 -4265 0 0 -2135z"/>
<path d="M2104 7835 c-3 -11 -76 -238 -163 -505 l-158 -485 -533 -3 -532 -2
426 -311 c234 -171 426 -316 426 -324 0 -7 -72 -235 -160 -505 -89 -271 -159
-494 -157 -496 2 -2 194 134 428 303 233 168 429 306 435 306 6 0 200 -138
432 -306 231 -169 422 -307 425 -307 2 0 -69 226 -160 503 -152 468 -162 503
-146 515 10 7 206 149 436 315 l419 302 -539 3 -540 2 -163 503 c-90 276 -165
504 -167 507 -2 2 -6 -5 -9 -15z"/>
</g>
</svg>
